<svg id="圖層_1" data-name="圖層 1" xmlns="http://www.w3.org/2000/svg" viewBox="0 0 500 500"><defs><style>.cls-1{fill:#484848;}</style></defs><path class="cls-1" d="M167.24,398.79c0,2-2.32,3.63-5.24,3.63-3.33.3-5.65-1.31-5.65-3.63,0-2,2.32-3.63,5.24-3.63C164.62,394.86,167.24,396.47,167.24,398.79Zm-31.35-4.54c-.71,2,1.31,4.33,4.33,4.94,2.62,1,5.65,0,6.25-2s-1.31-4.33-4.33-5.24c-2.62-.7-5.55.3-6.25,2.32Zm44.55-1.71c-2.92.7-4.94,2.62-4.63,4.94.3,2,2.92,3.32,5.94,2.62s4.94-2.62,4.64-4.64S183.37,392.23,180.44,392.54ZM246.77,6.25C107,6.25,0,112.4,0,252.21,0,364,70.36,459.67,170.87,493.34c12.9,2.32,17.44-5.64,17.44-12.19,0-6.25-.31-40.73-.31-61.9,0,0-70.56,15.12-85.38-30,0,0-11.49-29.33-28-36.9,0,0-23.09-15.82,1.61-15.52,0,0,25.1,2,38.91,26,22.08,38.91,59.07,27.72,73.49,21.07,2.32-16.13,8.87-27.32,16.13-34-56.35-6.25-113.21-14.42-113.21-111.4,0-27.72,7.66-41.63,23.79-59.37-2.62-6.55-11.19-33.57,2.62-68.45C139,104.13,187.5,137.9,187.5,137.9a238.1,238.1,0,0,1,126.61,0S362.6,104,383.67,110.68c13.81,35,5.24,61.9,2.62,68.45,16.13,17.84,26,31.75,26,59.37,0,97.28-59.38,105-115.73,111.4,9.28,8,17.14,23.08,17.14,46.77,0,34-.3,76-.3,84.27,0,6.56,4.63,14.52,17.44,12.2C431.65,459.67,500,364,500,252.21,500,112.4,386.59,6.25,246.77,6.25ZM98,353.93c-1.31,1-1,3.32.71,5.24,1.61,1.61,3.93,2.32,5.24,1,1.31-1,1-3.33-.7-5.24C101.61,353.32,99.29,352.62,98,353.93ZM87.1,345.76c-.71,1.31.3,2.93,2.32,3.93,1.61,1,3.62.71,4.33-.7s-.3-2.93-2.32-3.93C89.42,344.45,87.8,344.75,87.1,345.76Zm32.66,35.89c-1.61,1.31-1,4.33,1.31,6.25,2.32,2.32,5.24,2.62,6.55,1,1.31-1.31.71-4.34-1.31-6.25C124.09,380.34,121.07,380,119.76,381.65Zm-11.49-14.82c-1.62,1-1.62,3.63,0,5.95s4.33,3.33,5.64,2.32c1.61-1.31,1.61-3.93,0-6.25-1.41-2.32-4-3.33-5.64-2Z"/></svg>